<svg width="20" height="20" viewBox="0 0 20 20" fill="none" xmlns="http://www.w3.org/2000/svg">
<path d="M20 10C20 15.5228 15.5228 20 10 20C4.47715 20 0 15.5228 0 10C0 4.47715 4.47715 0 10 0C15.5228 0 20 4.47715 20 10Z" fill="#042F03"/>
<path d="M5 12.8753H5.23229C5.38715 13.6356 5.58424 14.2761 5.82357 14.797C6.07698 15.3179 6.3515 15.7473 6.64714 16.0851C6.94278 16.423 7.2525 16.6835 7.57629 16.8665C7.90009 17.0495 8.22389 17.1832 8.54768 17.2677C8.88556 17.3522 9.20232 17.4014 9.49796 17.4155C9.80767 17.4296 10.0963 17.4366 10.3638 17.4366C11.1099 17.4366 11.7223 17.324 12.201 17.0988C12.6796 16.8735 13.0597 16.592 13.3413 16.2541C13.6228 15.9021 13.8199 15.5291 13.9326 15.1349C14.0452 14.7266 14.1015 14.3535 14.1015 14.0157C14.1015 13.5229 14.01 13.1006 13.827 12.7486C13.644 12.3967 13.4117 12.101 13.1301 11.8617C12.8485 11.6083 12.5388 11.4042 12.201 11.2493C11.8772 11.0945 11.5674 10.9748 11.2718 10.8903L8.84332 10.1512C7.703 9.79927 6.83719 9.33469 6.24591 8.75749C5.66871 8.18029 5.38011 7.40599 5.38011 6.4346C5.38011 5.80109 5.49273 5.21685 5.71798 4.68188C5.94323 4.13283 6.25999 3.66122 6.66826 3.26703C7.07652 2.87284 7.56222 2.56312 8.12534 2.33787C8.70254 2.11262 9.32902 2 10.0048 2C10.4975 2 10.9058 2.04223 11.2296 2.1267C11.5674 2.21117 11.856 2.30972 12.0954 2.42234C12.3347 2.52089 12.5459 2.6124 12.7289 2.69687C12.926 2.78133 13.1231 2.82357 13.3202 2.82357C13.5032 2.82357 13.6228 2.80245 13.6792 2.76022C13.7495 2.70391 13.8411 2.5772 13.9537 2.38011H14.2493V6.20231H13.9959C13.9114 5.6955 13.7636 5.20981 13.5524 4.74523C13.3554 4.26658 13.0949 3.85127 12.7711 3.49932C12.4473 3.13329 12.0531 2.84469 11.5886 2.63351C11.1381 2.40826 10.6101 2.29564 10.0048 2.29564C9.66689 2.29564 9.29382 2.34491 8.88556 2.44346C8.47729 2.52793 8.09718 2.68279 7.74523 2.90804C7.39328 3.13329 7.09764 3.42893 6.85831 3.79496C6.63306 4.16099 6.52044 4.62557 6.52044 5.18869C6.52044 5.63919 6.61194 6.02634 6.79496 6.35013C6.97797 6.65985 7.21026 6.92734 7.49183 7.15259C7.78747 7.36376 8.11126 7.54677 8.46321 7.70163C8.82924 7.84241 9.19528 7.96912 9.56131 8.08174L12.1165 8.88419C12.384 8.96866 12.7218 9.08129 13.1301 9.22207C13.5384 9.36285 13.9326 9.57402 14.3127 9.85558C14.7069 10.1371 15.0377 10.5102 15.3052 10.9748C15.5867 11.4394 15.7275 12.0306 15.7275 12.7486C15.7275 13.4103 15.6008 14.0438 15.3474 14.6492C15.1081 15.2405 14.7561 15.7684 14.2916 16.233C13.827 16.6835 13.2638 17.0495 12.6022 17.3311C11.9405 17.5985 11.1944 17.7323 10.3638 17.7323C10.0681 17.7323 9.80767 17.7252 9.58242 17.7112C9.35717 17.7112 9.146 17.6971 8.94891 17.6689C8.75182 17.6408 8.55472 17.6056 8.35763 17.5633C8.16053 17.5352 7.94232 17.4859 7.703 17.4155C7.42143 17.3311 7.11876 17.2325 6.79496 17.1199C6.47116 17.0073 6.1896 16.9509 5.95027 16.9509C5.7391 16.9509 5.59128 16.9932 5.50681 17.0777C5.43642 17.1621 5.37307 17.2747 5.31676 17.4155H5V12.8753Z" fill="white"/>
</svg>
