<svg width="18" height="18" viewBox="0 0 18 18" fill="none" xmlns="http://www.w3.org/2000/svg">
<path d="M8.66667 3L2 9.68889V16.45C2 16.7447 2.11706 17.0273 2.32544 17.2357C2.53381 17.444 2.81643 17.5611 3.11111 17.5611H7V12.0056H10.3333V17.5611H14.2222C14.5169 17.5611 14.7995 17.444 15.0079 17.2357C15.2163 17.0273 15.3333 16.7447 15.3333 16.45V9.65L8.66667 3Z" fill="#054820"/>
<path d="M17.1891 9.43933C17.116 9.43975 17.0435 9.42574 16.9759 9.39809C16.9082 9.37044 16.8466 9.32971 16.7947 9.27822L8.85581 1.33377L0.916921 9.27822C0.810642 9.36923 0.673933 9.41679 0.534113 9.41139C0.394293 9.40599 0.26166 9.34803 0.162719 9.24909C0.0637774 9.15015 0.00581496 9.01751 0.000414323 8.87769C-0.00498632 8.73787 0.0425726 8.60116 0.133587 8.49488L8.46692 0.161551C8.57101 0.0580788 8.71182 0 8.85859 0C9.00536 0 9.14616 0.0580788 9.25025 0.161551L17.5836 8.49488C17.66 8.57288 17.7118 8.67167 17.7324 8.77892C17.753 8.88616 17.7416 8.99711 17.6995 9.09788C17.6574 9.19866 17.5865 9.28479 17.4958 9.34552C17.405 9.40625 17.2984 9.43888 17.1891 9.43933Z" fill="#054820"/>
</svg>
