<svg width="387" height="43" viewBox="0 0 387 43" fill="none" xmlns="http://www.w3.org/2000/svg">
<path d="M25.6746 25.8927C24.5117 22.622 23.3488 19.3514 22.1859 16.0807C21.023 12.7737 19.8601 9.48489 18.6972 6.21424C17.5707 9.48489 16.426 12.7555 15.2631 16.0262C14.1002 19.2969 12.9554 22.5857 11.8289 25.8927H25.6746ZM41.0467 41.2647C41.0467 41.4828 41.0104 41.6827 40.9377 41.8644C40.9013 42.0097 40.7742 42.0824 40.5561 42.0824C40.3017 42.0824 39.6658 42.0642 38.6482 42.0279C37.667 41.9916 36.813 41.9734 36.0862 41.9734C34.9597 41.9734 33.8331 41.9734 32.7065 41.9734C31.6163 41.9734 30.5079 42.0097 29.3814 42.0824C28.7999 42.1188 28.2003 42.1369 27.5825 42.1369C27.0011 42.1733 26.4196 42.1914 25.8382 42.1914C25.6565 42.1914 25.5293 42.1369 25.4566 42.0279C25.4202 41.8825 25.4021 41.7372 25.4021 41.5918L25.4566 41.1557C25.4566 41.0467 25.4929 40.9377 25.5656 40.8287C25.6383 40.6833 25.7473 40.6106 25.8927 40.6106H28.5637C28.8908 40.6106 29.2542 40.5379 29.6539 40.3926C30.09 40.2472 30.3081 39.9747 30.3081 39.5749C30.3081 39.4659 30.1809 39.048 29.9265 38.3212C29.6721 37.558 29.3632 36.6495 28.9998 35.5956C28.6364 34.5054 28.2548 33.4152 27.8551 32.325C27.4553 31.2347 27.1101 30.2717 26.8194 29.4359C26.5286 28.5637 26.3288 28.0004 26.2197 27.746H11.3383C11.2292 28.0731 11.0112 28.6727 10.6841 29.5449C10.3571 30.3807 9.99366 31.3438 9.59392 32.434C9.23051 33.5242 8.84894 34.5963 8.44919 35.6501C8.08578 36.704 7.77689 37.6125 7.5225 38.3757C7.30446 39.1025 7.19544 39.5567 7.19544 39.7384C7.19544 40.2472 7.46799 40.5743 8.0131 40.7196C8.55821 40.865 9.01247 40.9377 9.37587 40.9377C9.73928 40.9377 10.0663 40.9377 10.3571 40.9377C10.6478 40.9377 10.884 40.9195 11.0657 40.8832C11.1384 40.8832 11.2656 40.8832 11.4473 40.8832C11.6653 40.8468 11.7925 40.8287 11.8289 40.8287C12.0469 40.8287 12.1741 40.9559 12.2104 41.2102C12.2831 41.4646 12.3013 41.6645 12.265 41.8099C12.2286 41.9552 12.1378 42.0461 11.9924 42.0824C11.8834 42.0824 11.7562 42.0824 11.6108 42.0824C10.5569 42.0824 9.4849 42.0642 8.39468 42.0279C7.30446 41.9916 6.23241 41.9734 5.17853 41.9734C4.37904 41.9734 3.59772 41.9916 2.83457 42.0279C2.07141 42.0642 1.29009 42.0824 0.490598 42.0824C0.163533 42.0824 0 41.9007 0 41.5373C0 41.0285 0.254384 40.7742 0.763153 40.7742C0.944856 40.7742 1.1629 40.7923 1.41728 40.8287C1.67167 40.8287 1.94422 40.8287 2.23495 40.8287C2.63469 40.8287 3.03444 40.7196 3.43419 40.5016C3.87027 40.2472 4.23368 39.8111 4.5244 39.1933C4.70611 38.8663 5.06951 37.9941 5.61462 36.5768C6.15973 35.1595 6.83203 33.397 7.63153 31.2893C8.43102 29.1452 9.26685 26.8557 10.139 24.4209C11.0475 21.9497 11.9379 19.4967 12.8101 17.0619C13.6822 14.6271 14.4636 12.374 15.154 10.3026C15.8808 8.23114 16.4623 6.52314 16.8984 5.17853C17.3345 3.79759 17.5525 2.97993 17.5525 2.72554C17.5525 2.65286 17.498 2.56201 17.389 2.45299C17.28 2.30763 17.2254 2.21678 17.2254 2.18043C17.2254 2.03507 17.28 1.94422 17.389 1.90788C17.7524 1.8352 18.134 1.78069 18.5337 1.74435C18.9335 1.70801 19.315 1.67167 19.6784 1.63533C20.1509 1.56265 20.6233 1.50813 21.0957 1.47179C21.5681 1.39911 22.0406 1.3446 22.513 1.30826L36.6313 39.4659C36.7767 39.8293 37.0492 40.12 37.449 40.3381C37.8851 40.5198 38.2848 40.6106 38.6482 40.6106C38.9753 40.6106 39.3024 40.6106 39.6294 40.6106C39.9928 40.5743 40.3562 40.5561 40.7196 40.5561C40.865 40.5561 40.9559 40.647 40.9922 40.8287C41.0285 41.0104 41.0467 41.1557 41.0467 41.2647Z" fill="#EAE2CD"/>
<path d="M69.3059 11.9924C69.3059 9.08515 68.3974 6.97739 66.5804 5.66913C64.7997 4.32453 62.5647 3.65223 59.8755 3.65223C59.1487 3.65223 58.4037 3.6704 57.6406 3.70674C56.8774 3.70674 56.1143 3.70674 55.3511 3.70674C54.9877 3.70674 54.6243 3.81576 54.2609 4.03381C53.8975 4.25185 53.7158 4.56074 53.7158 4.96049V20.4416C54.5153 21.023 55.4965 21.3683 56.6594 21.4773C57.8223 21.5863 58.858 21.6408 59.7665 21.6408C62.8918 21.6408 65.2539 20.805 66.8529 19.1333C68.4883 17.4617 69.3059 15.0813 69.3059 11.9924ZM75.3021 11.8289C75.3021 14.191 74.8479 16.1171 73.9393 17.607C73.0672 19.097 71.8861 20.2599 70.3961 21.0957C68.9062 21.9316 67.2163 22.513 65.3266 22.8401C63.4733 23.1308 61.5654 23.2762 59.603 23.2762C58.6218 23.2762 57.6406 23.2216 56.6594 23.1126C55.6782 23.0036 54.7152 22.8764 53.7703 22.731V39.0298C53.7703 39.5749 54.0065 39.9383 54.479 40.12C54.9514 40.3017 55.4783 40.3926 56.0598 40.3926C56.6412 40.3926 57.1136 40.3926 57.4771 40.3926C57.6951 40.3926 57.9131 40.3926 58.1312 40.3926C58.3856 40.3562 58.6218 40.3381 58.8398 40.3381C59.1669 40.3381 59.3304 40.4834 59.3304 40.7742C59.3304 41.2466 59.2941 41.5736 59.2214 41.7553C59.1487 41.9007 58.858 41.9734 58.3492 41.9734C57.1136 41.9734 55.8962 41.937 54.697 41.8644C53.4978 41.7917 52.2985 41.7553 51.0993 41.7553C49.8637 41.7553 48.6099 41.8099 47.338 41.9189C46.1024 41.9916 44.8669 42.0279 43.6313 42.0279C43.2679 42.0279 43.0862 41.7917 43.0862 41.3193C43.0862 41.1012 43.1225 40.9013 43.1952 40.7196C43.2679 40.5379 43.4496 40.4471 43.7403 40.4471C44.1764 40.4471 44.6125 40.4653 45.0486 40.5016C45.4847 40.5016 45.9207 40.5016 46.3568 40.5016C46.7929 40.5016 47.1745 40.3926 47.5016 40.1745C47.865 39.9565 48.0648 39.6113 48.1012 39.1388C48.1739 38.4847 48.192 37.8306 48.1557 37.1764C48.1557 36.486 48.1557 35.8137 48.1557 35.1595C48.1557 33.8513 48.1557 32.543 48.1557 31.2347C48.1557 29.8901 48.1557 28.5637 48.1557 27.2554V17.716C48.1557 15.5719 48.1375 13.446 48.1012 11.3383C48.1012 9.19417 48.1012 7.06824 48.1012 4.96049C48.1012 4.30636 47.7741 3.92478 47.12 3.81576C46.5022 3.6704 45.9571 3.59772 45.4847 3.59772C45.1576 3.59772 44.8305 3.61589 44.5035 3.65223C44.1764 3.65223 43.8675 3.65223 43.5768 3.65223C43.3224 3.65223 43.177 3.54321 43.1407 3.32516C43.1407 3.07078 43.1407 2.8709 43.1407 2.72554C43.1407 2.58018 43.177 2.45299 43.2497 2.34397C43.3224 2.1986 43.4314 2.12592 43.5768 2.12592C44.776 2.12592 45.9753 2.16226 47.1745 2.23495C48.3737 2.30763 49.5911 2.34397 50.8267 2.34397C52.7164 2.34397 54.6061 2.30763 56.4959 2.23495C58.3856 2.16226 60.2753 2.12592 62.165 2.12592C63.6913 2.12592 65.2176 2.28946 66.7439 2.61652C68.3066 2.94359 69.7238 3.4887 70.9958 4.25185C72.304 5.015 73.3397 6.01437 74.1029 7.24995C74.9024 8.48553 75.3021 10.0118 75.3021 11.8289Z" fill="#EAE2CD"/>
<path d="M110.735 32.761C110.735 33.4152 110.681 34.0875 110.572 34.778C110.463 35.4321 110.372 36.0862 110.299 36.7403C110.19 37.4672 110.118 38.2121 110.081 38.9753C110.045 39.7021 109.936 40.4289 109.754 41.1557C109.718 41.3738 109.609 41.5918 109.427 41.8099C109.282 41.9916 109.082 42.0824 108.828 42.0824C104.939 42.0824 101.051 42.0642 97.1623 42.0279C93.2738 41.9552 89.3854 41.9189 85.4969 41.9189C84.334 41.9189 83.153 41.9734 81.9537 42.0824C80.7908 42.1551 79.6279 42.1914 78.465 42.1914C78.2833 42.1914 78.1016 42.1369 77.9199 42.0279C77.7746 41.8825 77.7019 41.719 77.7019 41.5373C77.7019 41.3193 77.7564 41.1194 77.8654 40.9377C77.9744 40.7196 78.1561 40.6106 78.4105 40.6106C79.1737 40.6106 79.9005 40.5743 80.591 40.5016C81.2814 40.3926 81.8447 40.1382 82.2808 39.7384C82.7532 39.3024 82.9894 38.6119 82.9894 37.667V6.37777C82.9894 5.54194 82.735 4.99683 82.2263 4.74245C81.7175 4.45172 81.0997 4.30636 80.3729 4.30636C80.0095 4.30636 79.6643 4.32453 79.3372 4.36087C79.0101 4.36087 78.6831 4.36087 78.356 4.36087C78.0653 4.36087 77.8109 4.28819 77.5928 4.14283C77.3748 3.99746 77.2658 3.76125 77.2658 3.43418C77.2658 3.14346 77.3203 2.88908 77.4293 2.67103C77.5383 2.45299 77.7746 2.34397 78.138 2.34397C78.7558 2.34397 79.3554 2.36214 79.9368 2.39848C80.5546 2.43482 81.1542 2.45299 81.7357 2.45299C85.4061 2.45299 89.0765 2.43482 92.7469 2.39848C96.4173 2.3258 100.07 2.28946 103.704 2.28946C105.375 2.28946 107.029 2.23495 108.664 2.12592C108.809 3.1798 108.991 4.23368 109.209 5.28756C109.427 6.34143 109.609 7.39531 109.754 8.44919C109.827 8.66723 109.881 8.88528 109.918 9.10332C109.954 9.28502 109.972 9.4849 109.972 9.70294C109.972 10.0663 109.845 10.3207 109.591 10.4661C109.373 10.6115 109.1 10.6841 108.773 10.6841C108.482 10.6841 108.264 10.6296 108.119 10.5206C108.01 10.3752 107.901 10.1572 107.792 9.86647C107.101 7.68604 106.175 6.1779 105.012 5.34207C103.885 4.50623 102.159 4.08832 99.8333 4.08832H88.495V20.4961C89.9123 20.4961 91.3296 20.4961 92.7469 20.4961C94.1642 20.4598 95.5996 20.4052 97.0532 20.3326C98.5432 20.2599 99.9241 20.1327 101.196 19.951C102.504 19.7329 103.885 19.4967 105.339 19.2423H105.393C105.611 19.2423 105.72 19.3332 105.72 19.5149C105.72 19.7693 105.611 20.2235 105.393 20.8777C105.175 21.5318 105.012 21.9679 104.903 22.1859C104.721 22.622 104.43 22.8401 104.031 22.8401C103.122 22.8401 102.177 22.7856 101.196 22.6765C100.251 22.5312 99.3064 22.4585 98.3615 22.4585C97.7074 22.4221 97.0532 22.4221 96.3991 22.4585C95.745 22.4585 95.0727 22.4585 94.3822 22.4585C94.1278 22.4585 93.8553 22.4585 93.5645 22.4585C93.3102 22.4221 93.0376 22.404 92.7469 22.404C92.2018 22.404 91.6022 22.4585 90.948 22.5675C90.2939 22.6402 89.7124 22.8582 89.2037 23.2216C88.7312 23.5487 88.495 24.0938 88.495 24.857V37.9396C88.495 39.1752 88.8039 39.902 89.4217 40.12C90.0395 40.3017 90.8572 40.3926 91.8747 40.3926H96.2356C97.2531 40.3926 98.3797 40.3381 99.6153 40.229C100.887 40.12 102.123 39.8838 103.322 39.5204C104.521 39.157 105.502 38.6301 106.266 37.9396C107.101 37.1764 107.683 36.3406 108.01 35.4321C108.373 34.4872 108.791 33.5424 109.264 32.5975C109.445 32.2704 109.736 32.1069 110.136 32.1069C110.536 32.1069 110.735 32.325 110.735 32.761Z" fill="#EAE2CD"/>
<path d="M154.335 41.3193C154.335 41.61 154.226 41.828 154.008 41.9734C153.826 42.1188 153.59 42.1914 153.299 42.1914C152.754 42.1914 152.191 42.1733 151.609 42.1369C151.064 42.1369 150.519 42.1188 149.974 42.0824C148.956 42.0461 147.921 42.0461 146.867 42.0824C145.849 42.0824 144.814 42.0824 143.76 42.0824C143.178 42.0824 142.742 41.7917 142.451 41.2102C140.998 38.2666 139.435 35.5229 137.764 32.9791C136.128 30.4352 134.438 27.7824 132.694 25.0205C132.476 25.3839 132.022 26.0744 131.331 27.0919C130.677 28.1095 129.914 29.2724 129.042 30.5806C128.17 31.8889 127.316 33.179 126.48 34.4509C125.68 35.7228 125.008 36.813 124.463 37.7215C123.954 38.5937 123.7 39.1025 123.7 39.2478C123.7 39.793 123.936 40.1564 124.408 40.3381C124.917 40.5198 125.48 40.6288 126.098 40.6651C126.752 40.6651 127.316 40.6833 127.788 40.7196C128.297 40.7196 128.551 40.865 128.551 41.1557C128.551 41.7372 128.279 42.0279 127.734 42.0279C127.443 42.0279 127.152 42.0461 126.861 42.0824C126.571 42.0824 126.28 42.0824 125.989 42.0824C125.262 42.0824 124.536 42.0642 123.809 42.0279C123.118 41.9552 122.41 41.9189 121.683 41.9189C120.411 41.9189 119.121 41.9552 117.813 42.0279C116.541 42.1006 115.269 42.1369 113.997 42.1369C113.524 42.1369 113.288 41.8825 113.288 41.3738C113.288 40.9013 113.47 40.647 113.833 40.6106C114.015 40.5743 114.197 40.5743 114.378 40.6106C114.596 40.6106 114.796 40.6106 114.978 40.6106C115.886 40.6106 116.686 40.5379 117.376 40.3926C118.067 40.2472 118.757 39.8838 119.448 39.3024C120.066 38.7572 120.665 38.1758 121.247 37.558C121.865 36.9402 122.41 36.3043 122.882 35.6501C124.408 33.7241 125.916 31.7799 127.406 29.8175C128.933 27.8187 130.368 25.8018 131.713 23.7668C129.714 20.7505 127.752 17.7342 125.826 14.7179C123.936 11.7017 121.974 8.72174 119.938 5.77816C119.575 5.26939 119.23 4.94232 118.903 4.79696C118.612 4.61526 118.158 4.5244 117.54 4.5244C117.177 4.5244 116.777 4.54257 116.341 4.57891C115.941 4.61525 115.541 4.63342 115.141 4.63342C114.96 4.63342 114.76 4.59708 114.542 4.5244C114.324 4.41538 114.215 4.23368 114.215 3.97929C114.215 3.72491 114.233 3.50687 114.269 3.32516C114.306 3.10712 114.451 2.96176 114.705 2.88908C115.469 2.70737 116.45 2.59835 117.649 2.56201C118.885 2.52567 119.92 2.48933 120.756 2.45299C121.265 2.41665 121.755 2.38031 122.228 2.34397C122.737 2.30763 123.227 2.28946 123.7 2.28946C124.136 2.28946 124.499 2.48933 124.79 2.88908C124.972 3.03444 125.099 3.19797 125.171 3.37967C125.281 3.56138 125.408 3.74308 125.553 3.92478C127.116 6.50497 128.678 9.10332 130.241 11.7198C131.804 14.3 133.33 16.9165 134.82 19.5694C135.147 19.0606 135.656 18.2975 136.346 17.28C137.037 16.2261 137.782 15.0632 138.581 13.7913C139.417 12.483 140.216 11.1929 140.98 9.92098C141.779 8.64906 142.415 7.5225 142.888 6.54131C143.396 5.52377 143.651 4.81513 143.651 4.41538C143.651 4.05198 143.451 3.8521 143.051 3.81576C142.688 3.74308 142.379 3.70674 142.124 3.70674C141.725 3.70674 141.307 3.72491 140.871 3.76125C140.471 3.79759 140.053 3.81576 139.617 3.81576C139.326 3.81576 139.144 3.76125 139.072 3.65223C138.999 3.50687 138.963 3.30699 138.963 3.05261C138.963 2.61652 139.199 2.39848 139.671 2.39848C140.144 2.39848 140.616 2.41665 141.089 2.45299C141.561 2.48933 142.034 2.5075 142.506 2.5075C143.523 2.5075 144.541 2.5075 145.559 2.5075C146.612 2.47116 147.648 2.43482 148.666 2.39848C149.174 2.36214 149.665 2.3258 150.137 2.28946C150.646 2.25312 151.155 2.23495 151.664 2.23495C152.173 2.23495 152.427 2.48933 152.427 2.9981C152.427 3.50687 152.136 3.79759 151.555 3.87027C151.01 3.94295 150.356 3.99746 149.592 4.03381C148.866 4.03381 148.248 4.19734 147.739 4.5244C147.448 4.70611 147.121 4.97866 146.758 5.34207C146.431 5.70547 146.158 6.03254 145.94 6.32326C144.305 8.75808 142.633 11.1747 140.925 13.5732C139.217 15.9354 137.473 18.2975 135.692 20.6596C136.964 22.5493 138.236 24.4391 139.508 26.3288C140.816 28.1821 142.106 30.0355 143.378 31.8889C144.25 33.1608 145.141 34.4327 146.049 35.7046C146.958 36.9766 147.903 38.2121 148.884 39.4114C149.283 39.8838 149.774 40.1927 150.356 40.3381C150.973 40.4471 151.573 40.5016 152.154 40.5016C152.409 40.5016 152.645 40.4834 152.863 40.4471C153.117 40.4107 153.372 40.3926 153.626 40.3926C153.917 40.3926 154.099 40.5016 154.171 40.7196C154.28 40.9013 154.335 41.1012 154.335 41.3193Z" fill="#EAE2CD"/>
<path d="M197.761 30.9622C197.761 28.0549 197.161 25.8018 195.962 24.2028C194.799 22.6039 192.673 21.768 189.584 21.6953C189.003 21.6953 188.421 21.6953 187.84 21.6953C187.258 21.659 186.677 21.6408 186.096 21.6408C185.187 21.6408 184.26 21.659 183.315 21.6953C182.407 21.7317 181.48 21.7498 180.535 21.7498V38.8118C180.535 39.4659 180.717 39.9383 181.081 40.229C181.48 40.5198 181.953 40.7015 182.498 40.7742C183.043 40.8105 183.552 40.8287 184.024 40.8287C184.642 40.8287 185.26 40.8287 185.877 40.8287C186.532 40.7923 187.168 40.756 187.785 40.7196C190.802 40.5379 193.218 39.6658 195.035 38.1031C196.852 36.5405 197.761 34.1602 197.761 30.9622ZM194.981 11.6108C194.981 8.81259 194.218 6.81386 192.691 5.61462C191.165 4.37904 189.057 3.76125 186.368 3.76125C185.387 3.76125 184.406 3.77942 183.424 3.81576C182.48 3.81576 181.517 3.8521 180.535 3.92478V20.2235C181.044 20.2235 181.535 20.2417 182.007 20.2781C182.48 20.2781 182.952 20.2781 183.424 20.2781C184.333 20.2781 185.332 20.2417 186.423 20.169C187.549 20.0963 188.621 19.9146 189.639 19.6239C190.693 19.3332 191.565 18.8608 192.255 18.2066C193.091 17.3708 193.745 16.3714 194.218 15.2085C194.726 14.0093 194.981 12.8101 194.981 11.6108ZM203.594 30.09C203.594 32.6339 202.994 34.8506 201.795 36.7403C200.595 38.5937 198.797 39.9928 196.398 40.9377C195.126 41.4465 193.727 41.7917 192.201 41.9734C190.711 42.1188 189.275 42.1914 187.894 42.1914C187.64 42.1914 187.367 42.1914 187.077 42.1914C186.822 42.1914 186.568 42.1733 186.314 42.1369C184.569 42.0642 182.825 42.0097 181.081 41.9734C179.372 41.9007 177.646 41.8644 175.902 41.8644C174.921 41.8644 173.94 41.9371 172.958 42.0824C172.014 42.1914 171.051 42.2459 170.069 42.2459C169.779 42.2459 169.615 42.1369 169.579 41.9189C169.542 41.6645 169.524 41.4283 169.524 41.2102C169.524 40.8105 169.688 40.6106 170.015 40.6106C170.524 40.6106 171.051 40.6106 171.596 40.6106C172.177 40.5743 172.722 40.5198 173.231 40.4471C173.994 40.3381 174.485 40.0473 174.703 39.5749C174.957 39.0661 175.102 38.4665 175.139 37.7761C175.212 37.0492 175.23 36.3406 175.193 35.6501C175.157 34.9597 175.139 34.2692 175.139 33.5787C175.139 32.2341 175.139 30.8895 175.139 29.5449C175.175 28.164 175.193 26.8012 175.193 25.4566V19.5149C175.193 17.5525 175.175 15.5901 175.139 13.6277C175.139 11.6653 175.139 9.70294 175.139 7.74054C175.139 7.37714 175.121 7.0319 175.084 6.70484C175.084 6.34143 175.03 5.9962 174.921 5.66913C174.666 4.94232 174.212 4.50623 173.558 4.36087C172.94 4.17917 172.304 4.08832 171.65 4.08832C171.396 4.08832 171.123 4.10649 170.832 4.14283C170.578 4.14283 170.306 4.14283 170.015 4.14283C169.76 4.14283 169.597 4.01564 169.524 3.76125C169.488 3.50687 169.47 3.30699 169.47 3.16163C169.47 3.01627 169.488 2.8709 169.524 2.72554C169.597 2.54384 169.724 2.45299 169.906 2.45299C170.742 2.45299 171.559 2.48933 172.359 2.56201C173.158 2.59835 173.958 2.61652 174.757 2.61652C176.901 2.61652 179.009 2.56201 181.081 2.45299C183.188 2.30763 185.296 2.16227 187.404 2.0169C187.695 1.98056 187.967 1.96239 188.221 1.96239C188.476 1.96239 188.73 1.96239 188.985 1.96239C191.02 1.96239 192.928 2.23494 194.708 2.78006C196.525 3.28882 197.997 4.19734 199.124 5.5056C200.25 6.81386 200.813 8.64906 200.813 11.0112C200.813 12.5012 200.414 13.8458 199.614 15.045C198.851 16.2079 197.852 17.2254 196.616 18.0976C195.417 18.9334 194.181 19.6058 192.909 20.1145V20.3871C194.654 20.6778 196.344 21.2047 197.979 21.9679C199.614 22.6947 200.959 23.7304 202.013 25.075C203.067 26.3833 203.594 28.0549 203.594 30.09Z" fill="#EAE2CD"/>
<path d="M239.316 40.6106C239.316 41.0467 238.989 41.3738 238.335 41.5918C237.717 41.8099 237.027 41.9552 236.264 42.0279C235.501 42.1006 234.956 42.1369 234.629 42.1369C233.393 42.1369 232.412 41.6463 231.685 40.6651C230.958 39.6839 230.413 38.6664 230.05 37.6125C228.814 39.1752 227.27 40.3381 225.416 41.1012C223.563 41.8644 221.637 42.2459 219.638 42.2459C216.367 42.2459 214.096 41.4101 212.824 39.7384C211.589 38.0304 210.971 35.632 210.971 32.543C210.971 29.8175 210.971 27.0919 210.971 24.3664C211.007 21.6045 211.043 18.8608 211.08 16.1352C211.08 15.045 210.553 14.4999 209.499 14.4999C209.208 14.4999 208.918 14.5181 208.627 14.5544C208.336 14.5908 208.045 14.6089 207.755 14.6089C207.646 14.6089 207.555 14.5544 207.482 14.4454C207.446 14.3 207.428 14.191 207.428 14.1183C207.428 13.7186 207.609 13.5005 207.973 13.4642C209.245 13.3188 210.517 13.228 211.788 13.1916C213.097 13.119 214.387 13.0099 215.659 12.8646C215.949 13.1553 216.095 13.5187 216.095 13.9548C216.095 14.8633 216.077 15.79 216.04 16.7348C216.004 17.6797 215.986 18.6246 215.986 19.5694C215.949 21.7862 215.913 24.0211 215.877 26.2743C215.877 28.491 215.877 30.726 215.877 32.9791C215.877 33.6696 215.895 34.4145 215.931 35.214C215.968 35.9772 216.113 36.6858 216.367 37.34C216.767 38.3575 217.512 39.0843 218.602 39.5204C219.729 39.9201 220.801 40.12 221.818 40.12C222.945 40.12 224.072 39.9201 225.198 39.5204C226.361 39.0843 227.342 38.4665 228.142 37.667C228.978 36.8312 229.45 35.7955 229.559 34.5599C229.632 33.9421 229.668 33.3243 229.668 32.7065C229.704 32.0524 229.723 31.4164 229.723 30.7987L229.668 15.9717C229.668 15.4993 229.504 15.154 229.177 14.936C228.887 14.7179 228.541 14.6089 228.142 14.6089C227.778 14.6089 227.415 14.6271 227.052 14.6634C226.724 14.6998 226.379 14.7179 226.016 14.7179C225.689 14.7179 225.525 14.5362 225.525 14.1728C225.525 13.8094 225.689 13.6096 226.016 13.5732C226.452 13.5005 226.906 13.4642 227.379 13.4642C227.851 13.4278 228.323 13.3915 228.796 13.3552L232.557 12.9736C232.811 12.9373 233.066 12.9009 233.32 12.8646C233.611 12.8282 233.884 12.8101 234.138 12.8101C234.32 12.8101 234.447 12.9191 234.52 13.1371C234.592 13.3188 234.629 13.4642 234.629 13.5732C234.52 21.4591 234.465 29.3269 234.465 37.1764C234.465 38.0849 234.665 38.8299 235.065 39.4114C235.501 39.9928 236.209 40.2836 237.191 40.2836C237.481 40.2836 237.736 40.2472 237.954 40.1745C238.208 40.1018 238.462 40.0655 238.717 40.0655C239.117 40.0655 239.316 40.2472 239.316 40.6106Z" fill="#EAE2CD"/>
<path d="M257.138 41.2647C257.138 41.4465 257.083 41.6282 256.974 41.8099C256.865 41.9552 256.72 42.0279 256.538 42.0279C255.521 42.0279 254.503 42.0097 253.485 41.9734C252.504 41.9007 251.487 41.8644 250.433 41.8644H248.961C247.871 41.8644 246.781 41.9007 245.69 41.9734C244.637 42.0097 243.583 42.0279 242.529 42.0279C242.383 42.0279 242.274 41.937 242.202 41.7553C242.165 41.5736 242.147 41.4283 242.147 41.3193C242.147 41.1376 242.165 41.0104 242.202 40.9377C242.238 40.8287 242.347 40.756 242.529 40.7196C242.71 40.647 242.91 40.6288 243.128 40.6651C243.383 40.6651 243.619 40.6651 243.837 40.6651C244.091 40.6651 244.328 40.6833 244.546 40.7196C244.764 40.7196 245 40.7196 245.254 40.7196C245.763 40.7196 246.217 40.6106 246.617 40.3926C247.053 40.1382 247.271 39.7203 247.271 39.1388V17.3345C247.271 16.7167 247.162 16.2442 246.944 15.9172C246.726 15.5538 246.272 15.3721 245.581 15.3721C245.073 15.3721 244.546 15.4084 244.001 15.4811C243.492 15.5174 242.983 15.5719 242.474 15.6446C242.184 15.6446 242.038 15.4811 242.038 15.154C242.038 14.7906 242.184 14.5544 242.474 14.4454C242.91 14.3 243.365 14.2092 243.837 14.1728C244.346 14.1002 244.818 14.0275 245.254 13.9548C246.272 13.7731 247.289 13.5732 248.307 13.3552C249.324 13.1371 250.324 12.9009 251.305 12.6465C251.414 12.6102 251.559 12.592 251.741 12.592C252.141 12.592 252.341 12.8101 252.341 13.2461C252.341 17.5343 252.323 21.8407 252.286 26.1652C252.286 30.4898 252.286 34.8143 252.286 39.1388C252.286 39.7203 252.541 40.1382 253.049 40.3926C253.594 40.6106 254.103 40.7196 254.576 40.7196C254.939 40.7196 255.302 40.7015 255.666 40.6651C256.066 40.6288 256.447 40.6106 256.811 40.6106C256.956 40.6106 257.047 40.7015 257.083 40.8832C257.12 41.0649 257.138 41.1921 257.138 41.2647ZM252.722 3.54321C252.722 4.45172 252.395 5.23304 251.741 5.88718C251.087 6.50497 250.306 6.81386 249.397 6.81386C248.489 6.81386 247.707 6.50497 247.053 5.88718C246.399 5.23304 246.072 4.45172 246.072 3.54321C246.072 2.63469 246.399 1.87154 247.053 1.25375C247.707 0.59962 248.489 0.272554 249.397 0.272554C250.306 0.272554 251.087 0.59962 251.741 1.25375C252.395 1.87154 252.722 2.63469 252.722 3.54321Z" fill="#EAE2CD"/>
<path d="M275.767 41.3738C275.767 41.5555 275.712 41.7372 275.603 41.9189C275.531 42.0642 275.385 42.1369 275.167 42.1369C274.041 42.1369 272.896 42.1188 271.733 42.0824C270.57 42.0097 269.407 41.9734 268.244 41.9734H266.336C265.573 41.9734 264.81 42.0097 264.047 42.0824C263.284 42.1188 262.521 42.1369 261.757 42.1369C261.612 42.1369 261.503 42.0824 261.43 41.9734C261.394 41.828 261.376 41.7008 261.376 41.5918C261.376 41.4828 261.376 41.3738 261.376 41.2647C261.376 41.1557 261.394 41.0467 261.43 40.9377C261.503 40.7923 261.703 40.7196 262.03 40.7196C262.393 40.6833 262.757 40.6833 263.12 40.7196C263.52 40.7196 263.774 40.7196 263.883 40.7196C264.392 40.7196 264.846 40.6106 265.246 40.3926C265.646 40.1382 265.846 39.7203 265.846 39.1388C265.846 36.3406 265.864 33.5605 265.9 30.7987C265.937 28.0004 265.955 25.2204 265.955 22.4585C265.955 19.6239 265.937 16.7894 265.9 13.9548C265.9 11.0839 265.9 8.23114 265.9 5.39658C265.9 5.14219 265.882 4.86964 265.846 4.57891C265.809 4.25185 265.7 3.99747 265.519 3.81576C265.373 3.63406 265.228 3.54321 265.083 3.54321C264.937 3.50687 264.756 3.4887 264.538 3.4887C263.883 3.4887 263.229 3.59772 262.575 3.81576C261.957 4.03381 261.34 4.14283 260.722 4.14283C260.322 4.14283 260.122 3.90661 260.122 3.43418C260.122 3.14346 260.34 2.94359 260.776 2.83457C261.249 2.72554 261.612 2.65286 261.867 2.61652C263.138 2.3258 264.519 1.99873 266.009 1.63533C267.499 1.27192 268.844 0.854003 270.043 0.381575C270.116 0.381575 270.189 0.363405 270.261 0.327064C270.334 0.290724 270.388 0.272554 270.425 0.272554C270.643 0.272554 270.77 0.345236 270.806 0.490598C270.879 0.635959 270.915 0.799491 270.915 0.981196C270.915 1.99873 270.897 3.01627 270.861 4.03381C270.861 5.015 270.861 6.01437 270.861 7.03191V22.295C270.861 25.0932 270.879 27.9096 270.915 30.7441C270.952 33.5424 270.97 36.3406 270.97 39.1388C270.97 39.7203 271.206 40.1382 271.678 40.3926C272.187 40.6106 272.678 40.7196 273.15 40.7196C273.55 40.7196 273.932 40.7015 274.295 40.6651C274.658 40.6288 275.022 40.6106 275.385 40.6106C275.567 40.6106 275.676 40.7196 275.712 40.9377C275.749 41.1194 275.767 41.2647 275.767 41.3738Z" fill="#EAE2CD"/>
<path d="M300.008 22.0769C300.008 20.8413 299.754 19.6784 299.245 18.5882C298.736 17.498 298.009 16.6077 297.064 15.9172C296.12 15.2267 294.975 14.8815 293.63 14.8815C291.886 14.8815 290.45 15.2994 289.324 16.1352C288.234 16.9711 287.361 18.0613 286.707 19.4059C286.089 20.7141 285.653 22.1314 285.399 23.6577C285.181 25.184 285.072 26.6377 285.072 28.0186C285.072 29.2542 285.181 30.5806 285.399 31.9979C285.617 33.4152 285.999 34.7416 286.544 35.9772C287.125 37.2128 287.925 38.2303 288.942 39.0298C289.96 39.793 291.25 40.1745 292.812 40.1745C294.121 40.1745 295.32 39.7748 296.41 38.9753C297.5 38.1395 298.373 37.1037 299.027 35.8682C299.681 34.6326 300.008 33.4152 300.008 32.2159V22.0769ZM310.147 39.902C310.147 40.0837 310.056 40.2654 309.874 40.4471C309.693 40.6288 309.529 40.7741 309.384 40.8832C308.911 41.2466 308.221 41.5555 307.312 41.8099C306.44 42.0642 305.695 42.1914 305.077 42.1914C304.133 42.1914 303.351 41.9189 302.733 41.3738C302.116 40.8287 301.607 40.1564 301.207 39.3569C300.844 38.5574 300.517 37.776 300.226 37.0129C299.426 38.2848 298.336 39.4295 296.955 40.4471C295.574 41.4283 294.103 41.9189 292.54 41.9189C291.486 41.9189 290.396 41.8462 289.269 41.7008C288.179 41.5191 287.162 41.1376 286.217 40.5561C284.145 39.2478 282.564 37.4853 281.474 35.2686C280.42 33.0154 279.893 30.7078 279.893 28.3457C279.893 25.5111 280.402 22.9673 281.42 20.7141C282.437 18.4247 283.945 16.6258 285.944 15.3176C287.979 13.973 290.487 13.3007 293.467 13.3007C294.121 13.3007 294.848 13.4279 295.647 13.6822C296.447 13.9366 297.228 14.2637 297.991 14.6634C298.791 15.0268 299.426 15.4084 299.899 15.8082V5.23304C299.899 4.07015 299.59 3.41602 298.972 3.27065C298.391 3.08895 297.609 2.9981 296.628 2.9981C296.301 2.9981 295.974 3.01627 295.647 3.05261C295.32 3.05261 294.993 3.05261 294.666 3.05261C294.521 3.05261 294.375 2.9981 294.23 2.88908C294.121 2.78005 294.066 2.65286 294.066 2.5075C294.066 2.25312 294.157 2.08958 294.339 2.0169C294.411 1.94422 294.484 1.90788 294.557 1.90788C294.666 1.90788 294.775 1.88971 294.884 1.85337C295.647 1.70801 296.41 1.59899 297.173 1.5263C297.973 1.41728 298.772 1.29009 299.572 1.14473C300.371 0.999364 301.153 0.854002 301.916 0.708639C302.679 0.526936 303.442 0.327063 304.205 0.10902C304.242 0.10902 304.296 0.0908503 304.369 0.0545102C304.478 0.0181701 304.551 0 304.587 0C304.769 0 304.878 0.0726814 304.914 0.218044C304.95 0.363405 304.968 0.508766 304.968 0.654129C304.968 5.16036 304.95 9.64843 304.914 14.1183C304.878 18.5882 304.859 23.0763 304.859 27.5825V35.7046C304.859 36.3224 304.932 36.9584 305.077 37.6125C305.223 38.2666 305.495 38.8118 305.895 39.2478C306.331 39.6839 306.931 39.902 307.694 39.902C308.057 39.902 308.403 39.8293 308.73 39.6839C309.057 39.5386 309.402 39.4659 309.765 39.4659C310.02 39.4659 310.147 39.6112 310.147 39.902Z" fill="#EAE2CD"/>
<path d="M332.739 22.9491C332.702 21.4591 332.575 20.0418 332.357 18.6972C332.139 17.3163 331.612 16.1897 330.776 15.3176C329.941 14.409 328.578 13.9548 326.688 13.9548C324.98 13.9548 323.581 14.4272 322.491 15.3721C321.437 16.2806 320.619 17.4435 320.038 18.8608C319.456 20.2417 319.02 21.659 318.729 23.1126C319.638 23.149 320.528 23.1853 321.401 23.2216C322.273 23.2216 323.145 23.2216 324.017 23.2216C325.471 23.2216 326.924 23.2035 328.378 23.1671C329.832 23.0945 331.285 23.0218 332.739 22.9491ZM339.008 35.4321C339.008 35.6138 338.971 35.7228 338.898 35.7591C338.789 36.1226 338.517 36.5586 338.081 37.0674C337.681 37.5762 337.227 38.0668 336.718 38.5392C336.209 38.9753 335.791 39.3024 335.464 39.5204C334.265 40.3562 332.902 41.0285 331.376 41.5373C329.886 42.0461 328.396 42.3005 326.906 42.3005C325.671 42.3005 324.29 42.1006 322.763 41.7008C321.273 41.3011 320.001 40.756 318.948 40.0655C316.912 38.7209 315.422 36.9584 314.478 34.778C313.533 32.5975 313.06 30.3262 313.06 27.9641C313.06 25.2749 313.587 22.7856 314.641 20.4961C315.695 18.2066 317.385 16.3533 319.711 14.936C320.765 14.3182 321.946 13.8094 323.254 13.4097C324.562 12.9736 325.816 12.7555 327.015 12.7555C329.159 12.7555 331.049 13.1916 332.684 14.0638C334.32 14.936 335.592 16.1716 336.5 17.7706C337.445 19.3332 337.917 21.2047 337.917 23.3852C337.917 24.003 337.772 24.4027 337.481 24.5844C337.227 24.7661 336.827 24.857 336.282 24.857C335.555 24.857 334.828 24.8388 334.102 24.8025C333.375 24.7661 332.648 24.7298 331.921 24.6934C330.904 24.6208 329.886 24.5844 328.868 24.5844C327.887 24.5844 326.888 24.5844 325.87 24.5844C324.635 24.5844 323.399 24.5844 322.164 24.5844C320.928 24.5844 319.692 24.6208 318.457 24.6934C318.421 25.2749 318.384 25.8382 318.348 26.3833C318.312 26.9284 318.293 27.4917 318.293 28.0731C318.293 29.4177 318.457 30.8168 318.784 32.2705C319.111 33.6877 319.638 35.0142 320.365 36.2497C321.092 37.449 322.018 38.4302 323.145 39.1933C324.271 39.9201 325.634 40.2836 327.233 40.2836C328.868 40.2836 330.431 40.0292 331.921 39.5204C333.411 39.0116 334.774 38.194 336.009 37.0674C336.336 36.7403 336.627 36.3951 336.882 36.0317C337.172 35.632 337.481 35.2867 337.808 34.996C337.99 34.8143 338.19 34.7234 338.408 34.7234C338.59 34.7234 338.735 34.7961 338.844 34.9415C338.953 35.0868 339.008 35.2504 339.008 35.4321Z" fill="#EAE2CD"/>
<path d="M363.915 17.8251C363.915 18.1885 363.769 18.5337 363.479 18.8608C363.224 19.1515 362.897 19.2969 362.497 19.2969C361.952 19.2969 361.553 19.1152 361.298 18.7517C361.08 18.3883 360.88 17.9704 360.699 17.498C360.553 17.0256 360.317 16.6077 359.99 16.2442C359.663 15.8808 359.118 15.6991 358.355 15.6991C358.209 15.6991 358.064 15.6991 357.919 15.6991C357.809 15.6991 357.682 15.7173 357.537 15.7536C356.919 15.8627 356.247 16.2442 355.52 16.8984C354.793 17.5525 354.085 18.3338 353.394 19.2423C352.74 20.1145 352.195 20.9867 351.759 21.8589C351.323 22.731 351.086 23.4579 351.05 24.0393C351.014 24.6208 350.996 25.2022 350.996 25.7837C350.996 26.3288 350.996 26.8739 350.996 27.419C350.996 29.3814 350.996 31.3438 350.996 33.3062C351.032 35.2685 351.05 37.2128 351.05 39.1388C351.05 39.6839 351.268 40.0837 351.704 40.3381C352.177 40.5561 352.649 40.6651 353.122 40.6651C353.485 40.6651 353.848 40.647 354.212 40.6106C354.575 40.5743 354.939 40.5561 355.302 40.5561C355.484 40.5561 355.611 40.647 355.684 40.8287C355.756 40.974 355.793 41.1194 355.793 41.2647C355.793 41.8462 355.502 42.1369 354.92 42.1369C353.83 42.1369 352.74 42.1188 351.65 42.0824C350.56 42.0097 349.469 41.9734 348.379 41.9734C347.253 41.9734 346.108 42.0097 344.945 42.0824C343.818 42.1551 342.674 42.1914 341.511 42.1914C341.365 42.1914 341.256 42.0824 341.184 41.8644C341.147 41.6463 341.129 41.4646 341.129 41.3193C341.129 40.9559 341.275 40.756 341.565 40.7196C341.965 40.647 342.383 40.6288 342.819 40.6651C343.255 40.7015 343.655 40.7196 344.018 40.7196C344.563 40.7196 344.999 40.6106 345.327 40.3926C345.69 40.1382 345.89 39.7203 345.926 39.1388C345.999 37.9759 346.035 36.7949 346.035 35.5956C346.071 34.3964 346.09 33.1971 346.09 31.9979V26.7103C346.053 25.1477 346.035 23.6032 346.035 22.0769C346.071 20.5143 346.017 18.9698 345.872 17.4435C345.835 16.7167 345.635 16.2079 345.272 15.9172C344.909 15.5901 344.364 15.4266 343.637 15.4266C343.346 15.4266 343.037 15.4629 342.71 15.5356C342.419 15.5719 342.11 15.5901 341.783 15.5901C341.493 15.5901 341.347 15.3721 341.347 14.936C341.347 14.6816 341.474 14.4999 341.729 14.3909C342.092 14.2819 342.474 14.2092 342.874 14.1728C343.273 14.1002 343.655 14.0456 344.018 14.0093C344.999 13.8276 345.981 13.6459 346.962 13.4642C347.943 13.2825 348.924 13.0644 349.905 12.8101C350.232 12.9191 350.469 13.119 350.614 13.4097C350.687 13.555 350.741 13.9548 350.778 14.6089C350.814 15.2631 350.832 16.0262 350.832 16.8984C350.832 17.7342 350.832 18.5337 350.832 19.2969C350.832 20.0237 350.832 20.5324 350.832 20.8232C351.632 19.5512 352.54 18.2793 353.558 17.0074C354.575 15.7355 355.738 14.6816 357.046 13.8458C358.355 13.0099 359.826 12.592 361.462 12.592C362.334 12.592 362.897 12.8646 363.152 13.4097C363.406 13.9548 363.57 14.5907 363.642 15.3176C363.715 15.7173 363.769 16.1352 363.806 16.5713C363.878 17.0074 363.915 17.4253 363.915 17.8251Z" fill="#EAE2CD"/>
<path d="M386.991 34.2874C386.991 35.9227 386.628 37.2673 385.901 38.3212C385.174 39.3387 384.229 40.12 383.066 40.6651C381.903 41.2102 380.632 41.5918 379.251 41.8099C377.87 42.0279 376.525 42.1369 375.217 42.1369C374.018 42.1369 372.818 42.0097 371.619 41.7553C370.456 41.501 369.275 41.3193 368.076 41.2102C367.821 40.229 367.567 39.2478 367.313 38.2666C367.095 37.2855 366.84 36.3224 366.55 35.3776C366.513 35.2685 366.422 35.0142 366.277 34.6144C366.168 34.2147 366.113 33.9966 366.113 33.9603C366.113 33.6696 366.204 33.4697 366.386 33.3607C366.568 33.2153 366.786 33.1426 367.04 33.1426C367.295 33.1426 367.476 33.2335 367.585 33.4152C367.803 33.6696 367.985 34.0148 368.13 34.4509C368.312 34.887 368.476 35.2685 368.621 35.5956C368.912 36.1771 369.166 36.6313 369.384 36.9584C369.602 37.2491 369.947 37.6307 370.42 38.1031C371.837 39.5931 373.6 40.3381 375.707 40.3381C376.87 40.3381 377.924 40.2109 378.869 39.9565C379.85 39.7021 380.632 39.2297 381.213 38.5392C381.794 37.8124 382.085 36.7767 382.085 35.4321C382.085 34.2692 381.722 33.3062 380.995 32.543C380.268 31.7435 379.323 31.0349 378.16 30.4171C377.034 29.7993 375.835 29.1997 374.563 28.6182C373.291 28.0368 372.073 27.4008 370.91 26.7103C369.784 25.9835 368.857 25.1114 368.13 24.0938C367.404 23.0763 367.04 21.8407 367.04 20.3871C367.04 18.6064 367.494 17.1528 368.403 16.0262C369.348 14.8996 370.547 14.0638 372.001 13.5187C373.454 12.9373 374.962 12.6465 376.525 12.6465C377.543 12.6465 378.451 12.7737 379.251 13.0281C380.086 13.2825 380.959 13.5732 381.867 13.9003C382.158 14.0093 382.449 14.082 382.739 14.1183C383.03 14.1547 383.321 14.1728 383.611 14.1728C383.793 14.1728 383.957 14.1728 384.102 14.1728C384.247 14.1728 384.393 14.1547 384.538 14.1183C384.647 14.7725 384.738 15.4448 384.811 16.1352C384.92 16.7894 385.011 17.4617 385.083 18.1521C385.12 18.4065 385.156 18.7154 385.192 19.0788C385.265 19.4059 385.301 19.7148 385.301 20.0055C385.301 20.2599 385.247 20.5324 385.138 20.8232C385.029 21.0775 384.811 21.2047 384.484 21.2047C384.229 21.2047 384.011 21.1866 383.83 21.1502C383.684 21.0775 383.557 20.914 383.448 20.6596C383.266 20.2962 383.103 19.9146 382.957 19.5149C382.848 19.0788 382.721 18.6791 382.576 18.3157C382.103 17.0437 381.286 16.0262 380.123 15.2631C378.96 14.4636 377.706 14.0638 376.362 14.0638C374.654 14.0638 373.363 14.5726 372.491 15.5901C371.619 16.5713 371.183 17.8977 371.183 19.5694C371.183 20.1509 371.328 20.7141 371.619 21.2592C371.946 21.8044 372.31 22.2768 372.709 22.6765C373.472 23.4033 374.363 23.9666 375.38 24.3664C376.434 24.7661 377.434 25.1659 378.378 25.5656C379.614 26.1107 380.886 26.7648 382.194 27.528C383.539 28.2912 384.665 29.2178 385.574 30.3081C386.519 31.3983 386.991 32.7247 386.991 34.2874Z" fill="#EAE2CD"/>
</svg>
