<svg width="16" height="7" viewBox="0 0 16 7" fill="none" xmlns="http://www.w3.org/2000/svg">
<path d="M3.37079 0C3.67341 0 3.94757 0.0510949 4.19326 0.153285C4.43895 0.255474 4.64719 0.395134 4.81798 0.572263C4.99176 0.749392 5.12509 0.957178 5.21798 1.19562C5.31086 1.43066 5.3573 1.68102 5.3573 1.94672V5.05328C5.3573 5.31898 5.31086 5.57105 5.21798 5.80949C5.12509 6.04453 4.99176 6.25061 4.81798 6.42774C4.64719 6.60487 4.43895 6.74453 4.19326 6.84671C3.94757 6.9489 3.67341 7 3.37079 7H1.98652C1.6839 7 1.40974 6.9489 1.16404 6.84671C0.918352 6.74453 0.708614 6.60487 0.534831 6.42774C0.364045 6.25061 0.23221 6.04453 0.139326 5.80949C0.0464419 5.57105 0 5.31898 0 5.05328V1.94672C0 1.68102 0.0464419 1.43066 0.139326 1.19562C0.23221 0.957178 0.364045 0.749392 0.534831 0.572263C0.708614 0.395134 0.918352 0.255474 1.16404 0.153285C1.40974 0.0510949 1.6839 0 1.98652 0H3.37079ZM4.21573 3.08613L4.15281 2.64672L3.86517 2.32482L3.39775 2.26861H2.39101L2.11685 2.2073C2.10187 2.14939 2.09139 2.0983 2.08539 2.05401C2.0794 2.00633 2.06891 1.95693 2.05393 1.90584V1.36934L2.11685 1.06788L2.41348 1.00146H3.55506L3.97753 1.09854L4.08539 0.541606L3.56404 0.459854H2.38202L1.93258 0.531387L1.64045 0.858394L1.58202 1.28759V1.98759L1.64045 2.41679L1.93258 2.73869L2.38202 2.80511H3.39775L3.67191 2.8562C3.6809 2.9073 3.69139 2.95499 3.70337 2.99927C3.71536 3.04355 3.72584 3.08954 3.73483 3.13723V3.80657C3.72884 3.85085 3.71835 3.89854 3.70337 3.94963C3.69139 4.00073 3.6809 4.04842 3.67191 4.0927L3.37978 4.1438H2.26517L1.82472 4.06204L1.71236 4.61387L2.2382 4.6854H3.40674L3.86517 4.62409L4.15281 4.30219L4.21573 3.86277V3.08613Z" fill="#014517"/>
<path d="M8.69214 0C8.99476 0 9.26891 0.0510949 9.51461 0.153285C9.7603 0.255474 9.96854 0.395134 10.1393 0.572263C10.3131 0.749392 10.4464 0.957178 10.5393 1.19562C10.6322 1.43066 10.6787 1.68102 10.6787 1.94672V5.05328C10.6787 5.31898 10.6322 5.57105 10.5393 5.80949C10.4464 6.04453 10.3131 6.25061 10.1393 6.42774C9.96854 6.60487 9.7603 6.74453 9.51461 6.84671C9.26891 6.9489 8.99476 7 8.69214 7H7.30786C7.00524 7 6.73109 6.9489 6.48539 6.84671C6.2397 6.74453 6.02996 6.60487 5.85618 6.42774C5.68539 6.25061 5.55356 6.04453 5.46067 5.80949C5.36779 5.57105 5.32135 5.31898 5.32135 5.05328V1.94672C5.32135 1.68102 5.36779 1.43066 5.46067 1.19562C5.55356 0.957178 5.68539 0.749392 5.85618 0.572263C6.02996 0.395134 6.2397 0.255474 6.48539 0.153285C6.73109 0.0510949 7.00524 0 7.30786 0H8.69214ZM9.10562 4.6854H9.61798L9.26292 0.878832L8.98427 0.562044L8.38652 0.459854H7.90562L7.30786 0.562044L7.03371 0.878832L6.66517 4.6854H7.2L7.27191 3.59708L7.31685 3.12701H8.97528L9.02022 3.59708L9.10562 4.6854ZM8.79101 1.0781C8.81198 1.35401 8.83596 1.6146 8.86292 1.85985C8.88989 2.10511 8.91536 2.36399 8.93933 2.6365H7.3573L7.49213 1.0781C7.57603 1.06788 7.64794 1.05596 7.70787 1.04234C7.77079 1.02871 7.84419 1.01509 7.92809 1.00146H8.36854L8.79101 1.0781Z" fill="#014517"/>
<path d="M14.5348 4.1438H13.1551V0.459854H12.6787V4.6854H14.5348V4.1438ZM14.0135 0C14.3161 0 14.5903 0.0510949 14.836 0.153285C15.0816 0.255474 15.2899 0.395134 15.4607 0.572263C15.6345 0.749392 15.7678 0.957178 15.8607 1.19562C15.9536 1.43066 16 1.68102 16 1.94672V5.05328C16 5.31898 15.9536 5.57105 15.8607 5.80949C15.7678 6.04453 15.6345 6.25061 15.4607 6.42774C15.2899 6.60487 15.0816 6.74453 14.836 6.84671C14.5903 6.9489 14.3161 7 14.0135 7H12.6292C12.3266 7 12.0524 6.9489 11.8067 6.84671C11.561 6.74453 11.3513 6.60487 11.1775 6.42774C11.0067 6.25061 10.8749 6.04453 10.782 5.80949C10.6891 5.57105 10.6427 5.31898 10.6427 5.05328V1.94672C10.6427 1.68102 10.6891 1.43066 10.782 1.19562C10.8749 0.957178 11.0067 0.749392 11.1775 0.572263C11.3513 0.395134 11.561 0.255474 11.8067 0.153285C12.0524 0.0510949 12.3266 0 12.6292 0H14.0135Z" fill="#014517"/>
</svg>
