<svg width="348" height="38" viewBox="0 0 348 38" fill="none" xmlns="http://www.w3.org/2000/svg">
<path d="M0.149994 25.9H0.899994C0.966661 26.3 1.08333 26.8333 1.24999 27.5C1.41666 28.1333 1.64999 28.8333 1.94999 29.6C2.28333 30.3333 2.68333 31.1 3.14999 31.9C3.64999 32.6667 4.24999 33.3833 4.94999 34.05C5.71666 34.8167 6.44999 35.4 7.14999 35.8C7.88333 36.2 8.56666 36.5 9.2 36.7C9.86666 36.8667 10.4833 36.9667 11.05 37C11.65 37 12.2 37 12.7 37C14.4667 37 15.9167 36.7333 17.05 36.2C18.1833 35.6333 19.0667 34.95 19.7 34.15C20.3667 33.35 20.8333 32.5167 21.1 31.65C21.3667 30.75 21.5 29.9667 21.5 29.3C21.5 28.0667 21.2 27.05 20.6 26.25C20.0333 25.45 19.2667 24.7833 18.3 24.25C17.3333 23.7167 16.2333 23.2667 15 22.9C13.7667 22.5333 12.5 22.1667 11.2 21.8C9.89999 21.4 8.63333 20.95 7.39999 20.45C6.16666 19.9167 5.06666 19.25 4.09999 18.45C3.13333 17.6167 2.34999 16.6 1.74999 15.4C1.18333 14.2 0.899994 12.7 0.899994 10.9C0.899994 9.56666 1.19999 8.28332 1.79999 7.04999C2.39999 5.81666 3.23333 4.73332 4.29999 3.79999C5.36666 2.83333 6.63333 2.06666 8.09999 1.49999C9.59999 0.899991 11.2167 0.599991 12.95 0.599991C14.05 0.599991 15.0167 0.699991 15.85 0.89999C16.6833 1.09999 17.4167 1.31666 18.05 1.54999C18.6833 1.74999 19.2333 1.94999 19.7 2.14999C20.2 2.34999 20.65 2.44999 21.05 2.44999C21.5167 2.44999 21.8167 2.38332 21.95 2.24999C22.1167 2.08332 22.2833 1.79999 22.45 1.39999H23.25V10.9H22.6C22.2 9.73332 21.7667 8.58332 21.3 7.44999C20.8667 6.31666 20.3 5.29999 19.6 4.39999C18.9 3.46666 18.0167 2.71666 16.95 2.14999C15.8833 1.58332 14.5333 1.29999 12.9 1.29999C11.5667 1.29999 10.3833 1.48332 9.34999 1.84999C8.34999 2.21666 7.49999 2.69999 6.79999 3.29999C6.09999 3.89999 5.56666 4.56666 5.19999 5.29999C4.83333 6.03332 4.64999 6.78332 4.64999 7.54999C4.64999 8.71666 4.94999 9.68333 5.54999 10.45C6.18333 11.2167 6.99999 11.8833 7.99999 12.45C8.99999 12.9833 10.1333 13.45 11.4 13.85C12.7 14.25 14.0167 14.6667 15.35 15.1C16.7167 15.5333 18.0333 16.0167 19.3 16.55C20.6 17.05 21.75 17.7 22.75 18.5C23.75 19.3 24.55 20.2667 25.15 21.4C25.7833 22.5333 26.1 23.9333 26.1 25.6C26.1 27.2333 25.7667 28.7833 25.1 30.25C24.4333 31.7167 23.4833 33 22.25 34.1C21.05 35.2 19.6 36.0833 17.9 36.75C16.2333 37.3833 14.3667 37.7 12.3 37.7C11.2667 37.7 10.2333 37.6 9.2 37.4C8.2 37.2 7.24999 37 6.34999 36.8C5.48333 36.5667 4.69999 36.35 3.99999 36.15C3.33333 35.95 2.83333 35.85 2.49999 35.85C2.03333 35.85 1.69999 35.9333 1.49999 36.1C1.29999 36.2333 1.11666 36.5333 0.949994 37H0.149994V25.9Z" fill="#FFEBCD"/>
<path d="M44.6719 24.6H44.5719C44.5052 24.8 44.3719 25 44.1719 25.2C44.0052 25.3667 43.6885 25.5667 43.2219 25.8C42.5885 26.1 41.9552 26.4 41.3219 26.7C40.6885 26.9667 40.1219 27.3167 39.6219 27.75C39.1219 28.1833 38.7052 28.7167 38.3719 29.35C38.0719 29.9833 37.9219 30.8 37.9219 31.8C37.9219 32.2 37.9385 32.6667 37.9719 33.2C38.0385 33.7333 38.1719 34.25 38.3719 34.75C38.6052 35.25 38.9385 35.6833 39.3719 36.05C39.8052 36.3833 40.4052 36.55 41.1719 36.55C41.6052 36.55 42.0219 36.45 42.4219 36.25C42.8552 36.05 43.2385 35.75 43.5719 35.35C43.9052 34.9167 44.1719 34.3667 44.3719 33.7C44.5719 33 44.6719 32.1667 44.6719 31.2V24.6ZM54.7719 36.2C54.3052 36.9 53.6219 37.3167 52.7219 37.45C51.8552 37.5833 51.0385 37.65 50.2719 37.65C48.5719 37.65 47.3052 37.35 46.4719 36.75C45.6719 36.15 45.1719 35.3167 44.9719 34.25H44.8719C44.3385 35.5833 43.6052 36.4833 42.6719 36.95C41.7385 37.4167 40.3885 37.65 38.6219 37.65C37.8219 37.65 37.0052 37.5667 36.1719 37.4C35.3385 37.2333 34.5719 36.9667 33.8719 36.6C33.1719 36.2333 32.6052 35.7333 32.1719 35.1C31.7385 34.4333 31.5219 33.6333 31.5219 32.7C31.5219 31.7333 31.7052 30.9333 32.0719 30.3C32.4719 29.6333 32.9719 29.0833 33.5719 28.65C34.2052 28.1833 34.9052 27.8167 35.6719 27.55C36.4719 27.25 37.2885 26.9667 38.1219 26.7C39.4885 26.3 40.5885 25.9667 41.4219 25.7C42.2885 25.4 42.9552 25.1 43.4219 24.8C43.8885 24.4667 44.2052 24.1 44.3719 23.7C44.5719 23.3 44.6719 22.7833 44.6719 22.15V19.1C44.6719 18.2 44.4552 17.3833 44.0219 16.65C43.5885 15.9167 42.7719 15.55 41.5719 15.55C40.8052 15.55 40.1385 15.7333 39.5719 16.1C39.0052 16.4333 38.7219 17.0667 38.7219 18C38.7219 18.1 38.7385 18.2833 38.7719 18.55C38.8052 18.7833 38.8385 19.05 38.8719 19.35C38.9052 19.65 38.9385 19.9333 38.9719 20.2C39.0052 20.4667 39.0219 20.65 39.0219 20.75C39.0219 21.25 38.9052 21.65 38.6719 21.95C38.4385 22.2167 38.1552 22.4167 37.8219 22.55C37.5219 22.6833 37.1885 22.7667 36.8219 22.8C36.4885 22.8 36.2052 22.8 35.9719 22.8C35.6385 22.8 35.2885 22.7833 34.9219 22.75C34.5885 22.6833 34.2885 22.5667 34.0219 22.4C33.7552 22.2 33.5219 21.9333 33.3219 21.6C33.1552 21.2667 33.0719 20.8167 33.0719 20.25C33.0719 19.3833 33.3052 18.6167 33.7719 17.95C34.2719 17.25 34.9219 16.6833 35.7219 16.25C36.5219 15.7833 37.4219 15.4333 38.4219 15.2C39.4552 14.9667 40.5219 14.85 41.6219 14.85C42.8885 14.85 44.0719 14.95 45.1719 15.15C46.3052 15.35 47.2719 15.7167 48.0719 16.25C48.9052 16.7833 49.5552 17.5167 50.0219 18.45C50.5219 19.35 50.7719 20.5 50.7719 21.9V34.3C50.7719 34.9333 50.8552 35.5 51.0219 36C51.2219 36.4667 51.6885 36.7 52.4219 36.7C52.8552 36.7 53.2052 36.6167 53.4719 36.45C53.7719 36.2833 54.0552 36.05 54.3219 35.75L54.7719 36.2Z" fill="#FFEBCD"/>
<path d="M57.4496 36.3H60.7496V16.25H57.4496V15.55H66.7496V20.55H66.8496C66.9829 20.25 67.2163 19.8 67.5496 19.2C67.8829 18.5667 68.3663 17.95 68.9996 17.35C69.6329 16.75 70.4496 16.2333 71.4496 15.8C72.4496 15.3333 73.6996 15.1 75.1996 15.1C77.3996 15.1 79.0996 15.7333 80.2996 17C81.5329 18.2667 82.1496 20 82.1496 22.2V36.3H85.4996V37H72.9496V36.3H76.0496V20.5C76.0496 19.1 75.7663 18.0833 75.1996 17.45C74.6329 16.7833 73.8663 16.45 72.8996 16.45C72.0996 16.45 71.3329 16.65 70.5996 17.05C69.8663 17.4167 69.2163 17.9833 68.6496 18.75C68.1163 19.5167 67.6829 20.4667 67.3496 21.6C67.0163 22.7333 66.8496 24.0667 66.8496 25.6V36.3H69.9996V37H57.4496V36.3Z" fill="#FFEBCD"/>
<path d="M91.8937 9.09999C92.3937 9.29999 92.8937 9.46666 93.3937 9.59999C93.9271 9.73332 94.4437 9.79999 94.9437 9.79999C95.4437 9.79999 95.9437 9.73332 96.4437 9.59999C96.9771 9.46666 97.4937 9.29999 97.9937 9.09999V15.55H103.844V16.25H97.9937V33C97.9937 33.5 98.0271 33.9667 98.0937 34.4C98.1604 34.8333 98.2771 35.2333 98.4437 35.6C98.6437 35.9333 98.9104 36.2 99.2437 36.4C99.6104 36.6 100.077 36.7 100.644 36.7C101.277 36.7 101.81 36.5667 102.244 36.3C102.71 36.0333 103.11 35.7 103.444 35.3C103.777 34.8667 104.044 34.3833 104.244 33.85C104.477 33.3167 104.66 32.8 104.794 32.3L105.544 32.45C105.344 33.5833 104.994 34.5 104.494 35.2C104.027 35.8667 103.477 36.3833 102.844 36.75C102.244 37.1167 101.594 37.35 100.894 37.45C100.194 37.5833 99.5271 37.65 98.8937 37.65C97.1604 37.65 95.8104 37.45 94.8437 37.05C93.9104 36.65 93.2104 36.15 92.7437 35.55C92.3104 34.95 92.0604 34.3 91.9937 33.6C91.9271 32.9 91.8937 32.25 91.8937 31.65V16.25H88.5437V15.55H91.8937V9.09999Z" fill="#FFEBCD"/>
<path d="M120.6 24.6H120.5C120.433 24.8 120.3 25 120.1 25.2C119.933 25.3667 119.616 25.5667 119.15 25.8C118.516 26.1 117.883 26.4 117.25 26.7C116.616 26.9667 116.05 27.3167 115.55 27.75C115.05 28.1833 114.633 28.7167 114.3 29.35C114 29.9833 113.85 30.8 113.85 31.8C113.85 32.2 113.866 32.6667 113.9 33.2C113.966 33.7333 114.1 34.25 114.3 34.75C114.533 35.25 114.866 35.6833 115.3 36.05C115.733 36.3833 116.333 36.55 117.1 36.55C117.533 36.55 117.95 36.45 118.35 36.25C118.783 36.05 119.166 35.75 119.5 35.35C119.833 34.9167 120.1 34.3667 120.3 33.7C120.5 33 120.6 32.1667 120.6 31.2V24.6ZM130.7 36.2C130.233 36.9 129.55 37.3167 128.65 37.45C127.783 37.5833 126.966 37.65 126.2 37.65C124.5 37.65 123.233 37.35 122.4 36.75C121.6 36.15 121.1 35.3167 120.9 34.25H120.8C120.266 35.5833 119.533 36.4833 118.6 36.95C117.666 37.4167 116.316 37.65 114.55 37.65C113.75 37.65 112.933 37.5667 112.1 37.4C111.266 37.2333 110.5 36.9667 109.8 36.6C109.1 36.2333 108.533 35.7333 108.1 35.1C107.666 34.4333 107.45 33.6333 107.45 32.7C107.45 31.7333 107.633 30.9333 108 30.3C108.4 29.6333 108.9 29.0833 109.5 28.65C110.133 28.1833 110.833 27.8167 111.6 27.55C112.4 27.25 113.216 26.9667 114.05 26.7C115.416 26.3 116.516 25.9667 117.35 25.7C118.216 25.4 118.883 25.1 119.35 24.8C119.816 24.4667 120.133 24.1 120.3 23.7C120.5 23.3 120.6 22.7833 120.6 22.15V19.1C120.6 18.2 120.383 17.3833 119.95 16.65C119.516 15.9167 118.7 15.55 117.5 15.55C116.733 15.55 116.066 15.7333 115.5 16.1C114.933 16.4333 114.65 17.0667 114.65 18C114.65 18.1 114.666 18.2833 114.7 18.55C114.733 18.7833 114.766 19.05 114.8 19.35C114.833 19.65 114.866 19.9333 114.9 20.2C114.933 20.4667 114.95 20.65 114.95 20.75C114.95 21.25 114.833 21.65 114.6 21.95C114.366 22.2167 114.083 22.4167 113.75 22.55C113.45 22.6833 113.116 22.7667 112.75 22.8C112.416 22.8 112.133 22.8 111.9 22.8C111.566 22.8 111.216 22.7833 110.85 22.75C110.516 22.6833 110.216 22.5667 109.95 22.4C109.683 22.2 109.45 21.9333 109.25 21.6C109.083 21.2667 109 20.8167 109 20.25C109 19.3833 109.233 18.6167 109.7 17.95C110.2 17.25 110.85 16.6833 111.65 16.25C112.45 15.7833 113.35 15.4333 114.35 15.2C115.383 14.9667 116.45 14.85 117.55 14.85C118.816 14.85 120 14.95 121.1 15.15C122.233 15.35 123.2 15.7167 124 16.25C124.833 16.7833 125.483 17.5167 125.95 18.45C126.45 19.35 126.7 20.5 126.7 21.9V34.3C126.7 34.9333 126.783 35.5 126.95 36C127.15 36.4667 127.616 36.7 128.35 36.7C128.783 36.7 129.133 36.6167 129.4 36.45C129.7 36.2833 129.983 36.05 130.25 35.75L130.7 36.2Z" fill="#FFEBCD"/>
<path d="M133.377 36.3H136.677V16.25H133.377V15.55H142.677V20.55H142.777C142.911 20.25 143.144 19.8 143.477 19.2C143.811 18.5667 144.294 17.95 144.927 17.35C145.561 16.75 146.377 16.2333 147.377 15.8C148.377 15.3333 149.627 15.1 151.127 15.1C153.327 15.1 155.027 15.7333 156.227 17C157.461 18.2667 158.077 20 158.077 22.2V36.3H161.427V37H148.877V36.3H151.977V20.5C151.977 19.1 151.694 18.0833 151.127 17.45C150.561 16.7833 149.794 16.45 148.827 16.45C148.027 16.45 147.261 16.65 146.527 17.05C145.794 17.4167 145.144 17.9833 144.577 18.75C144.044 19.5167 143.611 20.4667 143.277 21.6C142.944 22.7333 142.777 24.0667 142.777 25.6V36.3H145.927V37H133.377V36.3Z" fill="#FFEBCD"/>
<path d="M178.021 24.6H177.921C177.855 24.8 177.721 25 177.521 25.2C177.355 25.3667 177.038 25.5667 176.571 25.8C175.938 26.1 175.305 26.4 174.671 26.7C174.038 26.9667 173.471 27.3167 172.971 27.75C172.471 28.1833 172.055 28.7167 171.721 29.35C171.421 29.9833 171.271 30.8 171.271 31.8C171.271 32.2 171.288 32.6667 171.321 33.2C171.388 33.7333 171.521 34.25 171.721 34.75C171.955 35.25 172.288 35.6833 172.721 36.05C173.155 36.3833 173.755 36.55 174.521 36.55C174.955 36.55 175.371 36.45 175.771 36.25C176.205 36.05 176.588 35.75 176.921 35.35C177.255 34.9167 177.521 34.3667 177.721 33.7C177.921 33 178.021 32.1667 178.021 31.2V24.6ZM188.121 36.2C187.655 36.9 186.971 37.3167 186.071 37.45C185.205 37.5833 184.388 37.65 183.621 37.65C181.921 37.65 180.655 37.35 179.821 36.75C179.021 36.15 178.521 35.3167 178.321 34.25H178.221C177.688 35.5833 176.955 36.4833 176.021 36.95C175.088 37.4167 173.738 37.65 171.971 37.65C171.171 37.65 170.355 37.5667 169.521 37.4C168.688 37.2333 167.921 36.9667 167.221 36.6C166.521 36.2333 165.955 35.7333 165.521 35.1C165.088 34.4333 164.871 33.6333 164.871 32.7C164.871 31.7333 165.055 30.9333 165.421 30.3C165.821 29.6333 166.321 29.0833 166.921 28.65C167.555 28.1833 168.255 27.8167 169.021 27.55C169.821 27.25 170.638 26.9667 171.471 26.7C172.838 26.3 173.938 25.9667 174.771 25.7C175.638 25.4 176.305 25.1 176.771 24.8C177.238 24.4667 177.555 24.1 177.721 23.7C177.921 23.3 178.021 22.7833 178.021 22.15V19.1C178.021 18.2 177.805 17.3833 177.371 16.65C176.938 15.9167 176.121 15.55 174.921 15.55C174.155 15.55 173.488 15.7333 172.921 16.1C172.355 16.4333 172.071 17.0667 172.071 18C172.071 18.1 172.088 18.2833 172.121 18.55C172.155 18.7833 172.188 19.05 172.221 19.35C172.255 19.65 172.288 19.9333 172.321 20.2C172.355 20.4667 172.371 20.65 172.371 20.75C172.371 21.25 172.255 21.65 172.021 21.95C171.788 22.2167 171.505 22.4167 171.171 22.55C170.871 22.6833 170.538 22.7667 170.171 22.8C169.838 22.8 169.555 22.8 169.321 22.8C168.988 22.8 168.638 22.7833 168.271 22.75C167.938 22.6833 167.638 22.5667 167.371 22.4C167.105 22.2 166.871 21.9333 166.671 21.6C166.505 21.2667 166.421 20.8167 166.421 20.25C166.421 19.3833 166.655 18.6167 167.121 17.95C167.621 17.25 168.271 16.6833 169.071 16.25C169.871 15.7833 170.771 15.4333 171.771 15.2C172.805 14.9667 173.871 14.85 174.971 14.85C176.238 14.85 177.421 14.95 178.521 15.15C179.655 15.35 180.621 15.7167 181.421 16.25C182.255 16.7833 182.905 17.5167 183.371 18.45C183.871 19.35 184.121 20.5 184.121 21.9V34.3C184.121 34.9333 184.205 35.5 184.371 36C184.571 36.4667 185.038 36.7 185.771 36.7C186.205 36.7 186.555 36.6167 186.821 36.45C187.121 36.2833 187.405 36.05 187.671 35.75L188.121 36.2Z" fill="#FFEBCD"/>
<path d="M216.215 17.55H218.265C219.765 17.55 220.949 17.35 221.815 16.95C222.682 16.55 223.332 16.0167 223.765 15.35C224.199 14.65 224.465 13.8667 224.565 13C224.699 12.1333 224.765 11.25 224.765 10.35C224.765 8.88333 224.665 7.63332 224.465 6.59999C224.265 5.53332 223.932 4.66666 223.465 3.99999C222.999 3.29999 222.349 2.78332 221.515 2.44999C220.715 2.11666 219.682 1.94999 218.415 1.94999C218.049 1.94999 217.682 1.96666 217.315 1.99999C216.949 2.03332 216.582 2.06666 216.215 2.09999V17.55ZM216.215 36.3C217.115 36.4 218.082 36.45 219.115 36.45C220.182 36.45 221.132 36.3333 221.965 36.1C222.832 35.8333 223.565 35.35 224.165 34.65C224.765 33.95 225.215 32.9833 225.515 31.75C225.849 30.4833 226.015 28.8333 226.015 26.8C226.015 26.2333 225.965 25.4833 225.865 24.55C225.765 23.5833 225.482 22.6333 225.015 21.7C224.582 20.7667 223.899 19.9667 222.965 19.3C222.065 18.6 220.782 18.25 219.115 18.25H216.215V36.3ZM208.965 2.09999H204.365V1.39999H211.915C213.315 1.39999 214.699 1.38333 216.065 1.34999C217.432 1.28332 218.815 1.24999 220.215 1.24999C221.515 1.24999 222.882 1.38333 224.315 1.64999C225.749 1.91666 227.049 2.36666 228.215 2.99999C229.415 3.63333 230.399 4.48333 231.165 5.54999C231.932 6.61666 232.315 7.94999 232.315 9.54999C232.315 10.9833 231.932 12.2 231.165 13.2C230.432 14.1667 229.532 14.9667 228.465 15.6C227.399 16.2333 226.282 16.7167 225.115 17.05C223.982 17.3833 223.015 17.6 222.215 17.7V17.9C223.515 18 224.865 18.2167 226.265 18.55C227.665 18.8833 228.949 19.4167 230.115 20.15C231.282 20.85 232.249 21.7833 233.015 22.95C233.782 24.1167 234.165 25.5833 234.165 27.35C234.165 29.2833 233.665 30.8833 232.665 32.15C231.699 33.4167 230.499 34.4167 229.065 35.15C227.665 35.8833 226.165 36.4 224.565 36.7C222.965 36.9667 221.532 37.1 220.265 37.1C218.865 37.1 217.465 37.0833 216.065 37.05C214.699 37.0167 213.315 37 211.915 37H204.365V36.3H208.965V2.09999Z" fill="#FFEBCD"/>
<path d="M238.194 15.55H247.644V31.4C247.644 32.6667 247.894 33.75 248.394 34.65C248.894 35.5167 249.777 35.95 251.044 35.95C251.81 35.95 252.51 35.7667 253.144 35.4C253.777 35.0333 254.31 34.55 254.744 33.95C255.21 33.3167 255.56 32.5833 255.794 31.75C256.06 30.9167 256.194 30.05 256.194 29.15V16.25H252.894V15.55H262.294V36.3H265.594V37H256.294V32.95H256.194C255.927 33.6833 255.527 34.3333 254.994 34.9C254.46 35.4333 253.844 35.9 253.144 36.3C252.477 36.6667 251.76 36.9333 250.994 37.1C250.227 37.3 249.477 37.4 248.744 37.4C246.41 37.4 244.627 36.9 243.394 35.9C242.16 34.8667 241.544 33.1333 241.544 30.7V16.25H238.194V15.55Z" fill="#FFEBCD"/>
<path d="M272.06 4.79999C272.06 3.83332 272.41 2.99999 273.11 2.29999C273.81 1.59999 274.643 1.24999 275.61 1.24999C276.577 1.24999 277.41 1.59999 278.11 2.29999C278.81 2.99999 279.16 3.83332 279.16 4.79999C279.16 5.76666 278.81 6.59999 278.11 7.29999C277.41 7.99999 276.577 8.34999 275.61 8.34999C274.643 8.34999 273.81 7.99999 273.11 7.29999C272.41 6.59999 272.06 5.76666 272.06 4.79999ZM269.21 15.55H278.66V36.3H282.01V37H269.21V36.3H272.56V16.25H269.21V15.55Z" fill="#FFEBCD"/>
<path d="M284.982 0.949992H294.432V36.3H297.782V37H284.982V36.3H288.332V1.64999H284.982V0.949992Z" fill="#FFEBCD"/>
<path d="M317.653 26.3C317.653 25.2 317.586 24.0167 317.453 22.75C317.353 21.4833 317.12 20.3167 316.753 19.25C316.386 18.1833 315.836 17.3 315.103 16.6C314.37 15.9 313.386 15.55 312.153 15.55C311.32 15.55 310.603 15.7333 310.003 16.1C309.436 16.4667 308.97 17.0667 308.603 17.9C308.236 18.7333 307.97 19.85 307.803 21.25C307.67 22.6167 307.603 24.3 307.603 26.3C307.603 27.9333 307.636 29.4167 307.703 30.75C307.803 32.05 307.986 33.1667 308.253 34.1C308.553 35.0333 308.97 35.75 309.503 36.25C310.07 36.75 310.82 37 311.753 37C313.153 37 314.236 36.65 315.003 35.95C315.803 35.2167 316.403 34.3167 316.803 33.25C317.203 32.15 317.436 30.9833 317.503 29.75C317.603 28.4833 317.653 27.3333 317.653 26.3ZM323.753 36.3H327.053V37H317.753V33.3H317.653C317.12 34.7 316.37 35.7833 315.403 36.55C314.47 37.2833 313.253 37.65 311.753 37.65C310.12 37.65 308.636 37.3333 307.303 36.7C305.97 36.0667 304.82 35.2333 303.853 34.2C302.92 33.1333 302.186 31.9167 301.653 30.55C301.12 29.1833 300.853 27.75 300.853 26.25C300.853 25.0833 301.053 23.8333 301.453 22.5C301.886 21.1667 302.536 19.9333 303.403 18.8C304.303 17.6667 305.436 16.7333 306.803 16C308.17 15.2333 309.82 14.85 311.753 14.85C313.253 14.85 314.47 15.2 315.403 15.9C316.336 16.6 317.053 17.65 317.553 19.05H317.653V1.64999H314.253V0.949992H323.753V36.3Z" fill="#FFEBCD"/>
<path d="M330.792 29.75H331.492C331.892 30.6833 332.292 31.5833 332.692 32.45C333.125 33.3167 333.625 34.0833 334.192 34.75C334.758 35.4167 335.442 35.9667 336.242 36.4C337.042 36.8 338.025 37 339.192 37C339.492 37 339.892 36.9833 340.392 36.95C340.892 36.9167 341.375 36.7833 341.842 36.55C342.342 36.2833 342.758 35.9 343.092 35.4C343.458 34.8667 343.642 34.1167 343.642 33.15C343.642 32.85 343.592 32.55 343.492 32.25C343.425 31.9167 343.258 31.5833 342.992 31.25C342.725 30.9167 342.325 30.6 341.792 30.3C341.292 29.9667 340.592 29.6333 339.692 29.3L335.642 27.8C335.175 27.6333 334.675 27.4167 334.142 27.15C333.608 26.85 333.108 26.4667 332.642 26C332.208 25.5333 331.842 24.9833 331.542 24.35C331.242 23.6833 331.092 22.9 331.092 22C331.092 21.0333 331.292 20.1167 331.692 19.25C332.092 18.3833 332.642 17.6333 333.342 17C334.075 16.3333 334.942 15.8167 335.942 15.45C336.975 15.05 338.092 14.85 339.292 14.85C339.925 14.85 340.508 14.9167 341.042 15.05C341.608 15.1833 342.108 15.3333 342.542 15.5C343.008 15.6333 343.408 15.7667 343.742 15.9C344.108 16.0333 344.392 16.1 344.592 16.1C344.958 16.1 345.192 16.0333 345.292 15.9C345.392 15.7667 345.475 15.6167 345.542 15.45H346.242V21.55H345.592C345.258 20.75 344.908 19.9833 344.542 19.25C344.208 18.5167 343.792 17.8833 343.292 17.35C342.825 16.7833 342.242 16.35 341.542 16.05C340.842 15.7167 339.975 15.55 338.942 15.55C337.842 15.55 336.825 15.85 335.892 16.45C334.992 17.0167 334.542 17.8667 334.542 19C334.542 19.2333 334.575 19.5 334.642 19.8C334.708 20.1 334.858 20.4167 335.092 20.75C335.325 21.05 335.692 21.3667 336.192 21.7C336.692 22 337.358 22.3 338.192 22.6L342.442 24.05C344.242 24.6833 345.608 25.5167 346.542 26.55C347.475 27.5833 347.942 28.9 347.942 30.5C347.942 31.6 347.692 32.6 347.192 33.5C346.725 34.3667 346.092 35.1167 345.292 35.75C344.525 36.35 343.625 36.8167 342.592 37.15C341.558 37.4833 340.492 37.65 339.392 37.65C338.792 37.65 338.142 37.5833 337.442 37.45C336.742 37.3167 336.058 37.1667 335.392 37C334.758 36.8 334.175 36.6333 333.642 36.5C333.108 36.3667 332.692 36.3 332.392 36.3C332.125 36.3 331.925 36.35 331.792 36.45C331.692 36.55 331.592 36.7333 331.492 37H330.792V29.75Z" fill="#FFEBCD"/>
</svg>
